<svg width="1280" height="720" xmlns="http://www.w3.org/2000/svg" xmlns:xlink="http://www.w3.org/1999/xlink" overflow="hidden"><g><rect x="0" y="0" width="1280" height="720" fill="#FFFFFF"/><text font-family="Aptos,Aptos_MSFontService,sans-serif" font-weight="700" font-size="24" transform="translate(66.5807 160)">Test Engine Extension Model</text><rect x="453" y="214" width="395" height="80" stroke="#042433" stroke-width="2" stroke-miterlimit="8" fill="#00B050"/><text fill="#FFFFFF" font-family="Aptos,Aptos_MSFontService,sans-serif" font-weight="400" font-size="24" transform="translate(592.376 262)">Test Engine</text><text font-family="Aptos,Aptos_MSFontService,sans-serif" font-weight="400" font-size="24" transform="translate(77.4971 490)">[Export(</text><text font-family="Aptos,Aptos_MSFontService,sans-serif" font-weight="400" font-size="24" transform="translate(157.997 490)">typeof</text><text font-family="Aptos,Aptos_MSFontService,sans-serif" font-weight="400" font-size="24" transform="translate(223.164 490)">(</text><text font-family="Aptos,Aptos_MSFontService,sans-serif" font-weight="700" font-size="24" transform="translate(230.164 490)">IUserManager</text><text font-family="Aptos,Aptos_MSFontService,sans-serif" font-weight="400" font-size="24" transform="translate(382.29 490)">))]</text><text font-family="Aptos,Aptos_MSFontService,sans-serif" font-weight="400" font-size="24" transform="translate(462.471 490)">[Export(</text><text font-family="Aptos,Aptos_MSFontService,sans-serif" font-weight="400" font-size="24" transform="translate(542.971 490)">typeof</text><text font-family="Aptos,Aptos_MSFontService,sans-serif" font-weight="400" font-size="24" transform="translate(608.138 490)">(</text><text font-family="Aptos,Aptos_MSFontService,sans-serif" font-weight="700" font-size="24" transform="translate(615.138 490)">ITestWebProvider</text><text font-family="Aptos,Aptos_MSFontService,sans-serif" font-weight="400" font-size="24" transform="translate(806.285 490)">))]</text><text font-family="Aptos,Aptos_MSFontService,sans-serif" font-weight="400" font-size="24" transform="translate(866.581 490)">[Export(</text><text font-family="Aptos,Aptos_MSFontService,sans-serif" font-weight="400" font-size="24" transform="translate(947.081 490)">typeof</text><text font-family="Aptos,Aptos_MSFontService,sans-serif" font-weight="400" font-size="24" transform="translate(1012.25 490)">(</text><text font-family="Aptos,Aptos_MSFontService,sans-serif" font-weight="700" font-size="24" transform="translate(1019.25 490)">ITestEngineModule</text><text font-family="Aptos,Aptos_MSFontService,sans-serif" font-weight="400" font-size="24" transform="translate(1226.13 490)">))]</text><rect x="453" y="309" width="395" height="91" stroke="#042433" stroke-width="2" stroke-miterlimit="8" fill="#404040"/><text fill="#FFFFFF" font-family="Aptos,Aptos_MSFontService,sans-serif" font-weight="400" font-size="24" transform="translate(566.673 348)">Security Checks</text><text fill="#FFFFFF" font-family="Aptos,Aptos_MSFontService,sans-serif" font-weight="400" font-size="24" transform="translate(480.939 377)">(Signed</text><text fill="#FFFFFF" font-family="Aptos,Aptos_MSFontService,sans-serif" font-weight="400" font-size="24" transform="translate(562.939 377)">Assemblies, Allow/Deny)</text><text font-family="Aptos,Aptos_MSFontService,sans-serif" font-weight="400" font-size="24" transform="translate(82.749 551)">b</text><text font-family="Aptos,Aptos_MSFontService,sans-serif" font-weight="400" font-size="24" transform="translate(96.249 551)">rowser</text><text font-family="Aptos,Aptos_MSFontService,sans-serif" font-weight="400" font-size="24" transform="translate(82.749 580)">environment</text><text font-family="Aptos,Aptos_MSFontService,sans-serif" font-weight="400" font-size="24" transform="translate(462.471 544)">canvas</text><text font-family="Aptos,Aptos_MSFontService,sans-serif" font-weight="400" font-size="24" transform="translate(866.581 546)">Pause()</text><path d="M226.191 457.161 226.94 452.065 227.986 447.076 229.656 442.42 232.237 438.554 232.445 438.341 235.778 441.608 235.723 441.664 235.997 441.327 233.696 444.773 233.952 444.265 232.433 448.5 232.52 448.191 231.522 452.954 231.547 452.814 230.809 457.839ZM246.079 432.042 246.177 432.026 250.434 431.477 254.811 430.941 258.82 430.471 263.093 430.059 264.816 429.926 265.174 434.579 263.474 434.71 263.519 434.706 259.292 435.114 259.339 435.109 255.36 435.575 255.372 435.574 251.009 436.108 251.024 436.106 246.81 436.65 246.881 436.64 246.819 436.65ZM278.892 429.229 279.03 429.224 283.737 429.081 289.138 428.943 295.307 428.809 297.594 428.767 297.682 433.432 295.408 433.475 289.243 433.609 289.252 433.609 283.862 433.746 283.873 433.746 279.178 433.888 279.192 433.888 279.062 433.892ZM311.604 428.53 314.728 428.487 319.569 428.435 330.284 428.355 330.319 433.021 319.608 433.102 319.615 433.102 314.792 433.153 311.668 433.196ZM344.296 428.294 355.499 428.265 362.965 428.254 362.972 432.92 355.511 432.931 344.308 432.961ZM376.966 428.238 384.135 428.232 395.633 428.224 395.636 432.891 384.139 432.898 376.97 432.904ZM409.633 428.213 414.57 428.209 428.298 428.19 428.305 432.857 414.574 432.876 409.637 432.88ZM442.296 428.158 445.136 428.151 459.945 428.094 460.954 428.088 460.982 432.755 459.963 432.761 445.147 432.818 442.307 432.825ZM474.948 428.004 487.575 427.896 487.566 427.896 493.605 427.821 493.662 432.488 487.62 432.562 474.988 432.671ZM507.591 427.609 511.156 427.546 511.143 427.546 516.217 427.43 516.206 427.43 520.897 427.3 520.883 427.301 526.213 427.121 526.371 431.785 521.033 431.965 516.33 432.095 511.244 432.212 507.673 432.275ZM540.164 426.547 544.255 426.344 544.233 426.345 550.626 425.968 550.601 425.97 556.391 425.566 556.363 425.568 558.719 425.376 559.098 430.027 556.729 430.22 550.913 430.626 544.497 431.004 540.395 431.208ZM572.531 423.972 578.263 423.219 578.197 423.229 584.899 422.153 584.852 422.161 590.851 421.07 591.686 425.661 585.663 426.756 578.904 427.842 573.139 428.599ZM604.348 418.268 607.741 417.327 607.37 417.465 612.824 414.897 614.811 419.12 609.179 421.771 605.594 422.765ZM607.976 412.501 623.5 410.5 615.786 424.12Z" fill="#595959"/><path d="M-2.30858 46.661-1.56033 41.5654-0.514343 36.5763 1.15599 31.9196 3.73704 28.0536 3.94502 27.8414 7.27749 31.1083 7.2225 31.1644 7.49686 30.8265 5.1962 34.2726 5.45193 33.7648 3.93263 38.0004 4.02 37.6914 3.02161 42.4535 3.04651 42.3137 2.30858 47.339ZM17.5792 21.542 17.6768 21.5264 21.9339 20.977 26.311 20.4408 30.3195 19.971 34.5932 19.5587 36.3163 19.4261 36.6743 24.0791 34.9738 24.2099 35.0188 24.206 30.7914 24.6138 30.839 24.6087 26.8602 25.075 26.8723 25.0736 22.5088 25.6081 22.5237 25.6062 18.3097 26.1501 18.3807 26.1398 18.3186 26.1498ZM50.3923 18.7288 50.5296 18.7238 55.2372 18.581 60.6376 18.4432 66.8071 18.3093 69.0944 18.2665 69.1817 22.9323 66.9084 22.9749 60.7433 23.1087 60.7522 23.1085 55.3618 23.246 55.373 23.2457 50.6781 23.3881 50.6923 23.3876 50.5621 23.3923ZM83.1042 18.0296 86.2278 17.987 91.0689 17.935 101.784 17.8546 101.819 22.5212 91.1077 22.6015 91.1152 22.6015 86.2915 22.6532 83.1678 22.6958ZM115.795 17.7943 126.999 17.7645 134.465 17.7534 134.472 22.4201 127.011 22.4311 115.808 22.4609ZM148.466 17.7376 155.635 17.7316 167.133 17.7243 167.136 22.3909 155.639 22.3982 148.47 22.4042ZM181.133 17.7133 186.07 17.7092 199.798 17.6899 199.805 22.3565 186.074 22.3759 181.137 22.38ZM213.796 17.6579 216.635 17.6511 231.445 17.5942 232.454 17.5883 232.482 22.2549 231.463 22.2609 216.647 22.3178 213.807 22.3246ZM246.448 17.5043 259.075 17.3958 259.066 17.3959 265.105 17.3213 265.162 21.9877 259.12 22.0622 246.488 22.1708ZM279.091 17.1087 282.656 17.046 282.643 17.0463 287.717 16.9297 287.706 16.93 292.397 16.8003 292.383 16.8007 297.713 16.621 297.87 21.285 292.533 21.465 287.83 21.595 282.744 21.7119 279.173 21.7747ZM311.664 16.0465 315.755 15.844 315.733 15.8452 322.126 15.4679 322.101 15.4695 327.891 15.0658 327.863 15.0679 330.218 14.8755 330.598 19.5267 328.229 19.7202 322.413 20.1258 315.997 20.5044 311.895 20.7075ZM344.031 13.4722 349.762 12.7189 349.697 12.7285 356.399 11.6526 356.352 11.6607 362.351 10.5697 363.186 15.1611 357.163 16.2564 350.404 17.3415 344.639 18.0991ZM375.848 7.76797 379.241 6.82718 378.87 6.96463 384.324 4.39734 386.311 8.6195 380.679 11.2713 377.094 12.265ZM379.476 2.00058 395 0 387.286 13.6196Z" fill="#595959" transform="matrix(-1 0 0 1 1087.5 408.5)"/><path d="M2.33333-5.09659e-06 2.33337 18.6667-2.33329 18.6667-2.33333 5.09659e-06ZM2.3334 32.6667 2.33341 36.3986-2.33325 36.3986-2.33326 32.6667ZM7.00007 34.0653 0.000104987 48.0653-6.99993 34.0653Z" fill="#595959" transform="matrix(1 0 0 -1 661.5 463.565)"/></g></svg>